# xmcd
#
# Track frame offsets:
#	150
#	14487
#	25290
#	38822
#	53242
#	68620
#	82597
#	96845
#	111905
#	126550
#	140532
#	154772
#	169072
#	183115
#	197220
#	210232
#	219615
#	233512
#	246932
#	260227
#	275190
#	290155
#	304810
#	317997
# Disc length: 4420 seconds
# Revision: 1
# Processed by: cddbd v1.5.1PL0 Copyright (c) Steve Scherf et al.
#
# Submitted via: libkcddb 0.10
#
DISCID=68114218
DTITLE=Orioles - The Jubilee Recordings [CD 1)
DYEAR=1900
DGENRE=Unknown
TTITLE0=At Night
TTITLE1=Barbra Lee
TTITLE2=It's Too Soon To Know
TTITLE3=Tell Me So (version 1)
TTITLE4=I Cover The Waterfront
TTITLE5=To Be To You
TTITLE6=It Seems So Long Ago
TTITLE7=(It's Gonna Be A) Lonely Xmas
TTITLE8=Deacon Jones
TTITLE9=Please Give My Heart A Break
TTITLE10=Tell Me So (version 2)
TTITLE11=Dare To Dream
TTITLE12=Moonlight
TTITLE13=Every Dog-Gone Time
TTITLE14=You're Gone
TTITLE15=Donkey Serenade
TTITLE16=It's A Cold Summer
TTITLE17=Is My Heart Wasting Time?
TTITLE18=I Challenge Your Kiss
TTITLE19=A Kiss And A Rose
TTITLE20=So Much
TTITLE21=Forgive And Forget
TTITLE22=What Are You Doing New Year's Eve?
TTITLE23=Would You Still Be The One In My Heart?
EXTD=
EXTT0=
EXTT1=
EXTT2=
EXTT3=
EXTT4=
EXTT5=
EXTT6=
EXTT7=
EXTT8=
EXTT9=
EXTT10=
EXTT11=
EXTT12=
EXTT13=
EXTT14=
EXTT15=
EXTT16=
EXTT17=
EXTT18=
EXTT19=
EXTT20=
EXTT21=
EXTT22=
EXTT23=
PLAYORDER=
